<svg viewBox="0 0 300 129" fill="none" xmlns="http://www.w3.org/2000/svg">
<path d="M19.5633 50.3963H2.54439C4.58878 37.8379 13.4301 31.811 29.0949 31.811C47.6802 31.811 57.2915 37.9707 57.6632 50.3963V73.4687C57.6632 92.0541 46.3793 100.497 28.0594 101.798C11.784 103.073 0.5 95.5056 0.5 80.5577C0.898258 64.2822 12.6867 59.928 29.8383 58.2553C37.1397 57.3526 40.8568 55.1754 40.8568 51.4584C40.8568 47.7413 36.8742 45.6969 29.8383 45.6969C23.8113 45.6703 20.466 47.2103 19.5633 50.3963ZM41.0957 72.6988V66.4328C36.7063 68.2292 32.1539 69.5984 27.5019 70.5216C20.7049 71.796 17.2534 75.0086 17.2534 80.0001C17.189 81.1164 17.3719 82.2331 17.7891 83.2704C18.2062 84.3078 18.8473 85.2402 19.6666 86.0011C20.4858 86.762 21.463 87.3326 22.5283 87.6722C23.5936 88.0117 24.7207 88.1118 25.8292 87.9653C35.3343 87.9387 41.0957 82.31 41.0957 72.6988Z" fill="white"/>
<path d="M61.8584 66.6719C61.8584 44.1305 72.4786 32.8466 93.3738 32.4483C114.269 32.0501 125.234 42.3251 125.234 62.6893V102.807C125.234 119.853 114.481 128.428 92.8163 128.827C77.4435 128.827 67.6995 121.658 63.6107 107.294H82.4616C83.6032 112.153 87.5858 114.463 94.6217 114.463C103.596 114.463 108.216 109.153 108.216 98.6918V91.7887C106.15 94.9955 103.275 97.6017 99.8824 99.3448C96.4893 101.088 92.6968 101.907 88.8868 101.719C70.8324 101.719 61.8584 90.0098 61.8584 66.6719ZM108.242 67.2029C108.242 53.5029 103.622 46.7059 93.8783 46.7059C84.1343 46.7059 79.4083 53.4763 79.4083 67.2029C79.8065 80.2658 84.3997 86.7972 93.6393 86.7972C102.879 86.7972 107.738 80.2658 108.242 67.2029Z" fill="white"/>
<path d="M130.252 65.5302C130.651 43.5995 142.306 32.6872 165.007 32.6872H167.423V50.3698H161.662C152.183 50.3698 147.43 55.3613 147.43 65.2381V100.497H130.252V65.5302Z" fill="white"/>
<path d="M202.656 102.037C182.159 101.4 171.91 89.4788 171.91 66.4064C171.91 43.334 182.291 31.8907 202.921 31.6783C224.453 31.6783 234.569 44.9536 233.295 71.5041H189.46C190.097 81.8853 194.584 87.1423 202.921 87.1423C207.093 87.0468 211.056 85.2993 213.939 82.2836C214.666 81.4835 215.557 80.8507 216.552 80.429C217.546 80.0073 218.621 79.8066 219.701 79.841H232.259C228.489 94.0986 219.329 102.037 202.656 102.037ZM189.725 59.2378H215.214C214.178 50.2637 209.904 45.6439 202.656 45.6439C195.407 45.6439 191 50.2637 189.725 59.2378Z" fill="white"/>
<path d="M268.527 102.037C248.03 101.4 237.782 89.4788 237.782 66.4064C237.782 43.334 248.163 31.8907 268.793 31.6783C290.325 31.6783 300.441 44.9536 299.166 71.5041H255.305C255.942 81.8853 260.429 87.1423 268.766 87.1423C272.938 87.0468 276.901 85.2993 279.785 82.2836C280.511 81.4835 281.402 80.8507 282.397 80.429C283.392 80.0073 284.466 79.8066 285.546 79.841H298.104C294.387 94.0986 285.174 102.037 268.527 102.037ZM255.571 59.2378H281.059C280.024 50.2637 275.749 45.6439 268.501 45.6439C261.252 45.6439 256.845 50.2637 255.571 59.2378Z" fill="white"/>
<path fill-rule="evenodd" clip-rule="evenodd" d="M129.509 36.0592C132.086 35.8345 134.553 34.9171 136.651 33.4041C139.359 31.4617 141.199 28.5356 141.775 25.2531C141.982 24.1565 141.982 23.031 141.775 21.9343C141.723 21.3436 141.625 20.7578 141.483 20.182C140.844 17.8535 139.953 15.6012 138.828 13.4647L129.987 22.0671C129.19 22.8105 129.456 23.0494 129.456 24.9345C129.456 26.8196 129.456 28.625 129.456 30.5632L129.509 36.0592Z" fill="white"/>
<path fill-rule="evenodd" clip-rule="evenodd" d="M116.233 17.4473L127.358 28.0675C127.491 27.4037 127.358 17.4473 127.358 15.8011C127.358 15.4029 127.517 14.2347 127.199 13.9691L121.331 8.44664C119.235 11.2039 117.52 14.2314 116.233 17.4473Z" fill="white"/>
<path fill-rule="evenodd" clip-rule="evenodd" d="M127.252 36.1388C127.461 34.7686 127.514 33.3791 127.411 31.9969C127.411 30.8553 127.703 31.0146 126.588 29.9791L115.543 19.5713C115.007 21.3769 114.874 23.2784 115.154 25.1411C115.435 27.0037 116.121 28.782 117.164 30.3501C118.208 31.9181 119.584 33.2375 121.194 34.2149C122.804 35.1923 124.609 35.8038 126.482 36.006C126.96 36.0326 126.827 35.8999 127.252 36.1388Z" fill="white"/>
<path fill-rule="evenodd" clip-rule="evenodd" d="M129.456 19.6509L137.792 11.6858C135.397 7.80113 132.622 4.16362 129.509 0.82663L129.456 19.6509Z" fill="white"/>
<path fill-rule="evenodd" clip-rule="evenodd" d="M122.473 6.74739L127.252 11.261C127.47 8.6739 127.524 6.07553 127.411 3.48168C127.481 2.59803 127.481 1.71028 127.411 0.82663C125.644 2.69598 123.995 4.67338 122.473 6.74739Z" fill="white"/>
<path fill-rule="evenodd" clip-rule="evenodd" d="M127.597 46.2014C127.695 46.3438 127.825 46.4603 127.978 46.5407C128.131 46.6212 128.301 46.6633 128.473 46.6633C128.646 46.6633 128.816 46.6212 128.968 46.5407C129.121 46.4603 129.252 46.3438 129.349 46.2014C129.588 45.989 129.509 45.4846 129.509 45.1925V42.2454V40.1214C129.619 39.4105 129.564 38.6838 129.349 37.9973H127.385C127.268 40.7337 127.339 43.4748 127.597 46.2014Z" fill="white"/>
</svg>
