<svg width="113" height="48" viewBox="0 0 113 48" fill="none" xmlns="http://www.w3.org/2000/svg">
<path d="M7.97801 18.5991H1.62269C2.37037 13.8551 5.73495 11.5455 11.5918 11.5455C18.6325 11.5455 22.184 13.8551 22.3086 18.5991V27.2757C22.3086 34.3293 18.0718 37.4504 11.218 37.8874C5.11188 38.3867 0.875 35.5153 0.875 29.8974C0.999614 23.7801 5.42342 22.1572 11.9034 21.533C14.6449 21.2208 16.0156 20.3469 16.0156 18.9737C15.891 17.538 14.5203 16.7889 11.9034 16.7889C9.59799 16.8513 8.35185 17.4131 7.97801 18.5991ZM16.0779 26.9636V24.5916C14.5826 25.2158 12.838 25.7776 10.9688 26.1521C8.41416 26.6515 7.10571 27.8375 7.10571 29.7102C7.23032 31.7076 8.28955 32.7064 10.3457 32.7064C13.8972 32.7064 16.0779 30.5841 16.0779 26.9636Z" fill="#073142"/>
<path d="M23.8666 24.7169C23.8666 16.2276 27.7919 11.9829 35.7049 11.8581C43.6179 11.7956 47.6056 15.5409 47.6056 23.2188V38.2623C47.6056 44.6917 43.5556 47.8752 35.4557 48.0001C29.6611 48.0001 26.0473 45.3159 24.552 39.8853H31.5927C32.0288 41.6955 33.5242 42.5694 36.1411 42.5694C39.5057 42.5694 41.2503 40.5719 41.2503 36.6394C41.2503 36.6394 41.2503 36.7018 41.2503 34.0177C39.6303 36.5145 37.138 37.7629 34.0226 37.7629C27.2312 37.8878 23.8666 33.5183 23.8666 24.7169ZM41.2503 24.9041C41.3126 19.7856 39.5057 17.2263 35.8918 17.2263C32.2157 17.2263 30.4711 19.7856 30.4711 24.9041C30.5957 29.8354 32.3403 32.2699 35.8295 32.2699C39.3187 32.2699 41.0633 29.8354 41.2503 24.9041Z" fill="#073142"/>
<path d="M49.4753 24.2813C49.6623 16.0416 54.0238 11.9843 62.5598 11.9843H63.4944V18.6009H61.3137C57.7622 18.6009 55.9553 20.4736 55.9553 24.1564V37.3898H49.4753V24.2813Z" fill="#073142"/>
<path d="M76.6395 38.0133C68.9757 37.7636 65.1127 33.2692 65.1127 24.6551C65.1127 15.9785 68.9757 11.6714 76.7641 11.609C84.864 11.609 88.6024 16.5403 88.1663 26.5277H71.7172C71.9665 30.3978 73.6487 32.3953 76.7641 32.3953C78.2595 32.3953 79.6302 31.7711 80.8764 30.5851C81.4371 29.9609 82.1848 29.6488 83.0571 29.6488H87.7924C86.3594 35.017 82.8702 38.0133 76.6395 38.0133ZM71.7795 21.971H81.3125C80.9387 18.6002 79.3187 16.8524 76.5772 16.8524C73.898 16.8524 72.278 18.6002 71.7795 21.971Z" fill="#073142"/>
<path d="M101.314 38.0133C93.6503 37.7636 89.7872 33.2692 89.7872 24.6551C89.7872 15.9785 93.6503 11.6714 101.439 11.609C109.539 11.609 113.277 16.5403 112.841 26.5277H96.3918C96.641 30.3978 98.3233 32.3953 101.439 32.3953C102.934 32.3953 104.305 31.7711 105.551 30.5851C106.112 29.9609 106.859 29.6488 107.732 29.6488H112.467C111.034 35.017 107.545 38.0133 101.314 38.0133ZM96.4541 21.971H106.049C105.676 18.6002 104.056 16.8524 101.314 16.8524C98.5725 16.8524 96.9526 18.6002 96.4541 21.971Z" fill="#073142"/>
<path fill-rule="evenodd" clip-rule="evenodd" d="M49.2226 13.2356C49.8457 13.298 51.2787 12.7362 51.9018 12.2993C52.961 11.5502 53.6464 10.4266 53.8333 9.24063C53.9579 8.49158 53.8956 8.67884 53.8956 7.99221C53.8956 7.80494 53.8333 7.55526 53.771 7.30557C53.3972 5.80746 53.0857 5.62019 52.7741 4.80872L49.4095 7.92978C49.098 8.24189 49.2226 8.30431 49.2226 8.99095C49.2226 9.74001 49.2226 10.3642 49.2226 11.1133V13.2356Z" fill="#3BA064"/>
<path fill-rule="evenodd" clip-rule="evenodd" d="M44.2395 6.24452L48.4141 10.1771C48.4764 9.92738 48.4141 6.24452 48.4141 5.55788C48.4141 5.43304 48.4764 4.99609 48.3518 4.87125L46.171 2.81134C45.6726 3.31071 44.4887 5.49546 44.2395 6.24452Z" fill="#3BA064"/>
<path fill-rule="evenodd" clip-rule="evenodd" d="M48.3511 13.2964C48.4757 13.1091 48.4134 12.048 48.4134 11.7359C48.4134 11.2989 48.538 11.3613 48.1019 10.9868L43.9896 7.05426C42.9927 10.0505 45.298 12.9219 48.1019 13.234C48.2888 13.234 48.2265 13.1716 48.3511 13.2964Z" fill="#3BA064"/>
<path fill-rule="evenodd" clip-rule="evenodd" d="M49.2225 7.05362L52.3379 4.11981C52.0887 3.4956 49.8456 0.624214 49.2225 0V7.05362Z" fill="#3BA064"/>
<path fill-rule="evenodd" clip-rule="evenodd" d="M46.6069 2.24717L48.4138 3.93255C48.5385 3.74528 48.4761 1.37327 48.4761 0.998742C48.4761 0.686635 48.5385 0.249686 48.4761 0C48.04 0.374528 46.8562 1.81022 46.6069 2.24717Z" fill="#3BA064"/>
<path fill-rule="evenodd" clip-rule="evenodd" d="M48.4768 17.0392C48.726 17.2888 48.913 17.2888 49.1622 17.0392C49.2245 16.9767 49.2245 16.7895 49.2245 16.6646C49.2245 16.6646 49.2245 16.6646 49.2245 16.6022V15.4786C49.2245 15.2289 49.2245 14.9793 49.2245 14.7296C49.2245 14.4799 49.2868 14.1054 49.1622 13.9181H48.4145C48.4145 14.1054 48.3522 16.9143 48.4768 17.0392Z" fill="#3BA064"/>
</svg>
