<svg width="41" height="41" viewBox="0 0 41 41" fill="none" xmlns="http://www.w3.org/2000/svg">
<rect x="2.5" y="2.66331" width="36.67" height="36.67" rx="3" fill="white"/>
<path d="M33.5357 11.7203H8.46429C7.93092 11.7203 7.5 12.1062 7.5 12.5839V29.8567C7.5 30.3344 7.93092 30.7203 8.46429 30.7203H33.5357C34.0691 30.7203 34.5 30.3344 34.5 29.8567V12.5839C34.5 12.1062 34.0691 11.7203 33.5357 11.7203ZM31.1009 14.6594L21.5936 21.2851C21.3586 21.4497 21.0301 21.4497 20.7951 21.2851L11.2848 14.6594C11.249 14.6346 11.2227 14.6004 11.2096 14.5615C11.1966 14.5227 11.1974 14.4812 11.212 14.4428C11.2266 14.4044 11.2543 14.3711 11.2911 14.3475C11.328 14.3239 11.3721 14.3112 11.4174 14.3112H30.9683C31.0136 14.3112 31.0577 14.3239 31.0946 14.3475C31.1314 14.3711 31.1591 14.4044 31.1737 14.4428C31.1883 14.4812 31.1891 14.5227 31.1761 14.5615C31.163 14.6004 31.1367 14.6346 31.1009 14.6594Z" fill="#15243C"/>
</svg>
