<svg width="56" height="56" viewBox="0 0 56 56" fill="none" xmlns="http://www.w3.org/2000/svg">
<rect width="56" height="56" rx="8" fill="#F7A859"/>
<path d="M14.84 21.76V27.68H25.208V31.84H14.84V40H9.656V17.6H26.584V21.76H14.84ZM38.8727 40.384C37.3581 40.384 35.9607 40.1067 34.6807 39.552C33.4221 38.976 32.3874 38.1653 31.5767 37.12L34.4567 33.664C35.6727 35.3067 37.0594 36.128 38.6167 36.128C40.7287 36.128 41.7847 34.8907 41.7847 32.416V21.76H33.9127V17.6H46.9367V32.128C46.9367 34.88 46.2541 36.9493 44.8887 38.336C43.5234 39.7013 41.5181 40.384 38.8727 40.384Z" fill="white"/>
</svg>
