<svg width="37" height="37" viewBox="0 0 37 37" fill="none" xmlns="http://www.w3.org/2000/svg">
<path fill-rule="evenodd" clip-rule="evenodd" d="M0.166687 3.39331C0.166687 2.58087 0.489431 1.8017 1.06392 1.22721C1.6384 0.652722 2.41757 0.329979 3.23002 0.329979H33.7667C34.1693 0.329322 34.5681 0.408084 34.9403 0.561757C35.3124 0.71543 35.6506 0.940995 35.9354 1.22554C36.2203 1.51008 36.4462 1.84802 36.6003 2.22C36.7544 2.59197 36.8336 2.99069 36.8334 3.39331V33.93C36.8338 34.3327 36.7548 34.7315 36.601 35.1037C36.4471 35.4758 36.2214 35.814 35.9367 36.0988C35.652 36.3837 35.314 36.6096 34.9419 36.7636C34.5699 36.9177 34.1711 36.9969 33.7684 36.9966H3.23002C2.8276 36.9966 2.42912 36.9174 2.05735 36.7633C1.68558 36.6093 1.34781 36.3835 1.06333 36.0988C0.778849 35.8142 0.55324 35.4763 0.399391 35.1044C0.245542 34.7326 0.166469 34.3341 0.166687 33.9316V3.39331ZM14.68 14.31H19.645V16.8033C20.3617 15.37 22.195 14.08 24.95 14.08C30.2317 14.08 31.4834 16.935 31.4834 22.1733V31.8766H26.1384V23.3666C26.1384 20.3833 25.4217 18.7 23.6017 18.7C21.0767 18.7 20.0267 20.515 20.0267 23.3666V31.8766H14.68V14.31ZM5.51335 31.6483H10.86V14.08H5.51335V31.6466V31.6483ZM11.625 8.34998C11.6351 8.80777 11.5536 9.26296 11.3854 9.68884C11.2172 10.1147 10.9656 10.5027 10.6454 10.83C10.3252 11.1574 9.94285 11.4174 9.52078 11.595C9.09871 11.7725 8.64542 11.864 8.18752 11.864C7.72962 11.864 7.27634 11.7725 6.85426 11.595C6.43219 11.4174 6.04983 11.1574 5.72964 10.83C5.40944 10.5027 5.15784 10.1147 4.98962 9.68884C4.8214 9.26296 4.73994 8.80777 4.75002 8.34998C4.76981 7.4514 5.14066 6.5963 5.78316 5.96779C6.42566 5.33928 7.28873 4.98734 8.18752 4.98734C9.08632 4.98734 9.94938 5.33928 10.5919 5.96779C11.2344 6.5963 11.6052 7.4514 11.625 8.34998Z" fill="white"/>
</svg>
